<svg width="27" height="28" viewBox="0 0 27 28" fill="none" xmlns="http://www.w3.org/2000/svg">
<g id="Dollar">
<path id="Vector" d="M12.7057 11.2675V13.4079C11.903 13.2072 11.368 12.7501 11.368 12.3377C11.368 11.9141 11.903 11.457 12.7057 11.2675Z" fill="black"/>
<path id="Vector_2" d="M15.7157 16.3509C15.7157 16.7634 15.1806 17.2204 14.378 17.4211V15.2808C15.1806 15.4703 15.7157 15.9273 15.7157 16.3509Z" fill="black"/>
<path id="Vector_3" d="M21.2226 6.65245C19.1714 4.6013 16.4403 3.4754 13.5419 3.4754C10.6436 3.4754 7.91243 4.6013 5.86128 6.65245C3.79898 8.7036 2.67308 11.4347 2.67308 14.3443C2.67308 15.7711 2.95177 17.1757 3.498 18.5023C4.04423 19.8288 4.84685 21.0105 5.86128 22.0249C6.86456 23.0393 8.05734 23.8308 9.3839 24.377C10.7105 24.9344 12.1039 25.2131 13.5419 25.2131C14.98 25.2131 16.3734 24.9344 17.7 24.377C19.0265 23.8308 20.2193 23.0393 21.2226 22.0249C22.237 21.0105 23.0396 19.8288 23.5859 18.5023C24.1321 17.1757 24.4108 15.7711 24.4108 14.3443C24.4108 11.4347 23.2849 8.7036 21.2226 6.65245ZM14.378 19.1266V19.3606C14.378 19.8177 13.999 20.1967 13.5419 20.1967C13.0849 20.1967 12.7059 19.8177 12.7059 19.3606V19.1154C11.7249 18.9593 10.8554 18.5357 10.298 17.9003C10.0528 17.6105 10.0305 17.1869 10.2534 16.8747C10.4764 16.5515 10.8777 16.44 11.2344 16.5738L12.7059 17.1311V15.1023C10.9669 14.8347 9.69603 13.7088 9.69603 12.3377C9.69603 10.9554 10.9669 9.84065 12.7059 9.56196V9.32786C12.7059 8.85966 13.0849 8.4918 13.5419 8.4918C13.999 8.4918 14.378 8.85966 14.378 9.32786V9.56196C15.359 9.72917 16.2285 10.1528 16.7859 10.777C17.0311 11.0669 17.0534 11.4905 16.8305 11.8138C16.6744 12.0367 16.418 12.1705 16.1505 12.1705C16.0501 12.1705 15.9498 12.1482 15.8495 12.1147L14.378 11.5462V13.5751C16.117 13.8426 17.3878 14.9685 17.3878 16.3508C17.3878 17.7331 16.117 18.8479 14.378 19.1266Z" fill="black"/>
</g>
</svg>
