<svg width="27" height="28" viewBox="0 0 27 28" fill="none" xmlns="http://www.w3.org/2000/svg">
<g id="List">
<path id="Vector" d="M19.318 2.961H7.85825C6.14153 2.961 4.73695 4.35443 4.73695 6.0823V22.1236C4.73695 23.8515 6.14153 25.2561 7.85825 25.2561H19.318C21.0458 25.2561 22.4393 23.8515 22.4393 22.1236V6.0823C22.4393 4.35443 21.0458 2.961 19.318 2.961ZM9.00648 19.0469H18.1697C18.6379 19.0469 19.0058 19.4259 19.0058 19.883C19.0058 20.34 18.6379 20.719 18.1697 20.719H9.00648C8.54943 20.719 8.17042 20.34 8.17042 19.883C8.17042 19.4259 8.54943 19.0469 9.00648 19.0469ZM8.17042 14.1531C8.17042 13.6961 8.54943 13.3171 9.00648 13.3171H18.1697C18.6379 13.3171 19.0058 13.6961 19.0058 14.1531C19.0058 14.6213 18.6379 14.9892 18.1697 14.9892H9.00648C8.54943 14.9892 8.17042 14.6213 8.17042 14.1531ZM18.1697 9.25935H9.00648C8.54943 9.25935 8.17042 8.89148 8.17042 8.42329C8.17042 7.96624 8.54943 7.58722 9.00648 7.58722H18.1697C18.6379 7.58722 19.0058 7.96624 19.0058 8.42329C19.0058 8.89148 18.6379 9.25935 18.1697 9.25935Z" fill="black"/>
</g>
</svg>
