<svg width="53" height="53" viewBox="0 0 53 53" fill="none" xmlns="http://www.w3.org/2000/svg">
<rect width="53" height="53" fill="#434343"/>
<g id="Product Detail" clip-path="url(#clip0_0_1)">
<rect id="BG" x="-93" y="-48" width="1440" height="1984" fill="#F9F9F9"/>
<g id="Menu">
<g id="Logo">
<g id="Wave">
<path id="Vector" d="M46.927 36.1279C44.9836 36.1279 44.1224 35.3771 42.9078 34.3171C41.5607 33.1687 39.8824 31.7112 36.7245 31.7112C33.5445 31.7112 31.8882 33.1687 30.5411 34.3171C29.3265 35.3771 28.4432 36.1279 26.4999 36.1279C24.5786 36.1279 23.6953 35.3771 22.4807 34.3171C21.1336 33.1687 19.4553 31.7112 16.2974 31.7112C13.1174 31.7112 11.4391 33.1687 10.092 34.3171C8.87741 35.3771 8.01615 36.1279 6.07281 36.1279C5.1674 36.1279 4.41656 36.8787 4.41656 37.7842C4.41656 38.7117 5.1674 39.4404 6.07281 39.4404C9.25281 39.4404 10.909 38.005 12.2561 36.8346C13.4707 35.7746 14.3541 35.0237 16.2974 35.0237C18.2407 35.0237 19.102 35.7746 20.3166 36.8346C21.6637 38.005 23.342 39.4404 26.4999 39.4404C29.6799 39.4404 31.3582 38.005 32.7053 36.8346C33.9199 35.7746 34.7812 35.0237 36.7245 35.0237C38.6457 35.0237 39.5291 35.7746 40.7437 36.8346C42.0908 38.005 43.7691 39.4404 46.927 39.4404C47.8324 39.4404 48.5832 38.7117 48.5832 37.7842C48.5832 36.8787 47.8324 36.1279 46.927 36.1279Z" fill="#141416"/>
<path id="Vector_2" d="M46.927 27.0306C44.9836 27.0306 44.1224 26.2577 42.9078 25.2198C41.5607 24.0494 39.8824 22.614 36.7245 22.614C33.5445 22.614 31.8882 24.0494 30.5411 25.2198C29.3265 26.2577 28.4432 27.0306 26.4999 27.0306C24.5786 27.0306 23.6953 26.2577 22.4807 25.2198C21.1336 24.0494 19.4553 22.614 16.2974 22.614C13.1174 22.614 11.4391 24.0494 10.092 25.2198C8.87741 26.2577 8.01615 27.0306 6.07281 27.0306C5.1674 27.0306 4.41656 27.7594 4.41656 28.6869C4.41656 29.5923 5.1674 30.3431 6.07281 30.3431C9.25281 30.3431 10.909 28.8856 12.2561 27.7152C13.4707 26.6773 14.3541 25.9265 16.2974 25.9265C18.2407 25.9265 19.102 26.6773 20.3166 27.7152C21.6637 28.8856 23.342 30.3431 26.4999 30.3431C29.6799 30.3431 31.3582 28.8856 32.7053 27.7152C33.9199 26.6773 34.7812 25.9265 36.7245 25.9265C38.6457 25.9265 39.5291 26.6773 40.7437 27.7152C42.0908 28.8856 43.7691 30.3431 46.927 30.3431C47.8324 30.3431 48.5832 29.5923 48.5832 28.6869C48.5832 27.7594 47.8324 27.0306 46.927 27.0306Z" fill="#141416"/>
<path id="Vector_3" d="M6.07281 21.2886C9.25281 21.2886 10.909 19.8311 12.2561 18.6828C13.4707 17.6228 14.3541 16.8719 16.2974 16.8719C18.2407 16.8719 19.102 17.6228 20.3166 18.6828C21.6637 19.8311 23.342 21.2886 26.4999 21.2886C29.6799 21.2886 31.3582 19.8311 32.7053 18.6828C33.9199 17.6228 34.7812 16.8719 36.7245 16.8719C38.6457 16.8719 39.5291 17.6228 40.7437 18.6828C42.0908 19.8311 43.7691 21.2886 46.927 21.2886C47.8324 21.2886 48.5832 20.5378 48.5832 19.6324C48.5832 18.7049 47.8324 17.9761 46.927 17.9761C44.9836 17.9761 44.1224 17.2253 42.9078 16.1653C41.5607 14.9949 39.8824 13.5594 36.7245 13.5594C33.5445 13.5594 31.8882 14.9949 30.5411 16.1653C29.3265 17.2253 28.4432 17.9761 26.4999 17.9761C24.5786 17.9761 23.6953 17.2253 22.4807 16.1653C21.1336 14.9949 19.4553 13.5594 16.2974 13.5594C13.1174 13.5594 11.4391 14.9949 10.092 16.1653C8.87741 17.2253 8.01615 17.9761 6.07281 17.9761C5.1674 17.9761 4.41656 18.7049 4.41656 19.6324C4.41656 20.5378 5.1674 21.2886 6.07281 21.2886Z" fill="#141416"/>
</g>
</g>
</g>
</g>
<defs>
<clipPath id="clip0_0_1">
<rect width="1440" height="1984" fill="white" transform="translate(-93 -48)"/>
</clipPath>
</defs>
</svg>
