<svg width="28" height="28" viewBox="0 0 28 28" fill="none" xmlns="http://www.w3.org/2000/svg">
<g id="Voice Id">
<path id="Vector" d="M21.1017 3.0058H7.34556C4.99343 3.0058 3.07607 4.92318 3.07607 7.27531V21.0314C3.07607 23.3835 4.99343 25.3009 7.34556 25.3009H21.1017C23.1305 25.3009 24.8249 23.874 25.2597 21.9789C25.3265 21.8563 25.3711 21.7225 25.3711 21.5776V7.27531C25.3711 4.92318 23.4538 3.0058 21.1017 3.0058ZM21.9377 15.3015C21.9377 15.7586 21.5587 16.1376 21.1017 16.1376C20.6335 16.1376 20.2656 15.7586 20.2656 15.3015V13.0051C20.2656 12.5481 20.6335 12.1691 21.1017 12.1691C21.5587 12.1691 21.9377 12.5481 21.9377 13.0051V15.3015ZM6.50949 15.3015V13.0051C6.50949 12.5481 6.88851 12.1691 7.34556 12.1691C7.81376 12.1691 8.18162 12.5481 8.18162 13.0051V15.3015C8.18162 15.7586 7.81376 16.1376 7.34556 16.1376C6.88851 16.1376 6.50949 15.7586 6.50949 15.3015ZM18.4931 10.7199V17.5868C18.4931 18.055 18.1252 18.4228 17.657 18.4228C17.2 18.4228 16.821 18.055 16.821 17.5868V10.7199C16.821 10.2517 17.2 9.88383 17.657 9.88383C18.1252 9.88383 18.4931 10.2517 18.4931 10.7199ZM15.0597 8.4235V19.8832C15.0597 20.3402 14.6807 20.7192 14.2236 20.7192C13.7666 20.7192 13.3875 20.3402 13.3875 19.8832V8.4235C13.3875 7.96645 13.7666 7.58744 14.2236 7.58744C14.6807 7.58744 15.0597 7.96645 15.0597 8.4235ZM11.6262 10.7199V17.5868C11.6262 18.055 11.2472 18.4228 10.7902 18.4228C10.322 18.4228 9.95411 18.055 9.95411 17.5868V10.7199C9.95411 10.2517 10.322 9.88383 10.7902 9.88383C11.2472 9.88383 11.6262 10.2517 11.6262 10.7199Z" fill="black"/>
</g>
</svg>
